<?xml version="1.0" encoding="utf-8"?>
<!DOCTYPE svg PUBLIC "-//W3C//DTD SVG 20010904//EN" "http://www.w3.org/TR/2001/REC-SVG-20010904/DTD/svg10.dtd">
<svg version="1.0" xmlns="http://www.w3.org/2000/svg" width="514pt" height="514pt" viewBox="0 0 514 514" style=""
     preserveAspectRatio="xMidYMid meet">
    <g fill="#000000FF" stroke="#000000FF">
        <path d="M 257.000 215.000 L 257.000 351.000 251.250 351.030 C 233.945 351.121 202.455 353.094 195.487 354.523 C 184.508 356.776 176.319 360.882 170.590 367.007 C 162.791 375.345 161.499 379.258 161.508 394.500 C 161.516 406.660 161.695 407.864 164.280 413.143 C 171.723 428.340 187.441 435.016 215.708 434.985 C 237.643 434.962 248.525 431.373 258.560 420.852 C 264.646 414.471 268.680 406.619 271.584 395.500 C 273.293 388.955 273.433 381.107 273.734 274.738 L 274.057 160.976 276.279 161.508 C 277.500 161.800 294.419 164.941 313.875 168.488 C 339.887 173.230 349.746 174.671 351.125 173.933 C 352.902 172.982 353.000 171.156 353.000 139.047 C 353.000 120.411 353.260 104.487 353.577 103.659 C 355.060 99.796 351.312 98.646 304.948 88.732 C 279.914 83.380 258.884 79.000 258.216 79.000 C 257.267 79.000 257.000 108.925 257.000 215.000 "/>
    </g>
</svg>
