<svg version="1.0" xmlns="http://www.w3.org/2000/svg"
 width="180.000000pt" height="180.000000pt" viewBox="0 0 180.000000 180.000000"
 preserveAspectRatio="xMidYMid meet">
<g transform="translate(0.000000,180.000000) scale(0.100000,-0.100000)"
fill="#000000" stroke="none">
<path d="M750 1726 c-298 -63 -536 -276 -632 -566 -30 -90 -32 -103 -32 -250
0 -170 10 -224 64 -345 59 -133 152 -248 268 -333 83 -61 143 -92 252 -128 78
-26 98 -28 240 -28 178 -1 229 10 375 79 102 49 220 143 290 233 54 68 128
214 150 297 25 91 31 273 12 371 -38 202 -154 392 -310 510 -73 55 -218 127
-302 150 -82 22 -291 27 -375 10z m315 -261 c263 -67 440 -286 423 -525 -8
-108 -69 -200 -170 -255 -48 -26 -65 -30 -175 -35 -109 -5 -124 -8 -147 -29
-38 -36 -41 -67 -12 -124 31 -59 33 -96 5 -131 -27 -34 -69 -44 -147 -33 -137
18 -254 79 -351 183 -128 136 -183 336 -142 514 48 205 218 381 421 434 73 19
221 20 295 1z"/>
<path d="M1044 1351 c-30 -13 -64 -59 -64 -88 0 -54 48 -103 100 -103 53 0
100 49 100 104 0 56 -83 109 -136 87z" fill="#0000FF"/>
<path d="M518 1084 c-102 -55 -24 -218 83 -174 66 28 81 110 30 161 -33 33
-70 37 -113 13z" fill="#FF0000"/>
<path d="M1205 1076 c-66 -66 -23 -170 71 -170 49 0 94 48 94 100 0 81 -108
127 -165 70z" fill="#00FF00"/>
</g>
</svg>
