<svg version="1.0" xmlns="http://www.w3.org/2000/svg"
     width="360.000000pt" height="360.000000pt" viewBox="0 0 360.000000 360.000000"
     preserveAspectRatio="xMidYMid meet">
    <g transform="translate(0.000000,360.000000) scale(0.100000,-0.100000)"
       fill="#1E90FF" stroke="none">
        <path d="M1781 2685 c-53 -147 -373 -400 -793 -629 l-87 -47 -7 -56 c-10 -80
2 -236 25 -325 42 -164 125 -318 230 -428 l53 -55 -46 59 c-164 208 -199 408
-98 567 27 41 61 64 386 257 l356 211 355 -210 c320 -190 357 -215 385 -257
101 -153 71 -349 -86 -553 -31 -41 -44 -63 -29 -49 50 46 145 181 185 264 72
148 112 360 96 509 l-7 66 -122 67 c-386 213 -676 440 -744 584 -16 33 -30 59
-33 59 -4 1 -12 -15 -19 -34z"/>
        <path d="M1782 2040 c-43 -95 -290 -288 -521 -405 -46 -23 -49 -27 -55 -73
-18 -140 49 -347 149 -457 l36 -40 -30 40 c-86 113 -108 237 -61 330 25 47 36
55 255 187 127 75 237 136 246 135 8 -1 117 -62 241 -136 212 -125 228 -137
252 -182 50 -90 29 -216 -54 -329 l-41 -55 41 45 c53 59 116 181 135 261 8 35
15 105 15 156 l0 91 -95 51 c-213 116 -416 273 -471 367 -14 24 -27 44 -28 44
0 0 -7 -14 -14 -30z"/>
        <path d="M640 1709 c-126 -64 -242 -99 -328 -99 l-54 0 61 -66 c63 -67 87
-111 271 -506 l55 -117 70 -15 c39 -9 86 -19 105 -22 l35 -7 -35 24 c-73 51
-167 211 -243 419 -58 157 -61 141 30 195 43 25 106 59 140 76 61 29 61 29 53
62 -5 17 -14 51 -20 75 -6 23 -14 41 -18 41 -4 -1 -59 -28 -122 -60z"/>
        <path d="M2815 1698 c-15 -61 -15 -74 -4 -81 8 -4 64 -35 124 -68 61 -33 117
-67 125 -75 13 -13 11 -26 -20 -117 -57 -167 -152 -349 -219 -418 -31 -32 -55
-59 -51 -59 18 2 182 38 185 42 3 2 52 105 110 229 149 316 176 363 251 428
l35 31 -58 0 c-89 0 -177 26 -322 96 -73 35 -134 64 -136 64 -1 0 -10 -33 -20
-72z"/>
        <path d="M1785 1600 c-12 -37 -142 -145 -259 -214 l-116 -70 0 -61 c0 -97 48
-228 98 -266 16 -13 16 -12 0 7 -47 55 -63 155 -35 210 11 21 61 57 171 122
l156 93 155 -93 c112 -67 159 -101 171 -124 24 -45 15 -130 -20 -186 -20 -32
-22 -37 -5 -18 47 53 81 146 86 234 l6 83 -74 41 c-148 81 -309 211 -309 249
0 20 -18 15 -25 -7z"/>
        <path d="M805 1440 c-27 -11 -69 -19 -93 -20 l-43 0 33 -41 c18 -22 67 -109
108 -192 l75 -151 67 -17 68 -17 -40 45 c-35 40 -123 197 -149 266 -9 24 -7
28 34 52 25 14 45 28 45 31 0 8 -43 64 -49 63 -3 0 -28 -9 -56 -19z"/>
        <path d="M2720 1438 c-8 -13 -19 -28 -23 -35 -5 -8 6 -19 32 -33 22 -11 43
-25 46 -31 10 -16 -108 -247 -148 -291 -38 -42 -34 -44 45 -25 l46 12 81 160
c44 88 93 175 110 193 l30 32 -42 0 c-23 1 -67 9 -97 20 -68 24 -62 24 -80 -2z"/>
    </g>
</svg>